<?xml version="1.0" standalone="no"?>
<!DOCTYPE svg PUBLIC "-//W3C//DTD SVG 20010904//EN"
 "http://www.w3.org/TR/2001/REC-SVG-20010904/DTD/svg10.dtd">
<svg version="1.0" xmlns="http://www.w3.org/2000/svg"
 width="612.000000pt" height="612.000000pt" viewBox="0 0 612.000000 612.000000"
 preserveAspectRatio="xMidYMid meet">
<metadata>
Created by potrace 1.14, written by Peter Selinger 2001-2017
</metadata>
<g transform="translate(0.000000,612.000000) scale(0.100000,-0.100000)"
fill="#000000" stroke="none">
<path d="M3075 5284 c-451 -69 -849 -394 -1000 -817 -98 -273 -103 -576 -15
-839 87 -259 272 -504 491 -650 101 -68 277 -154 289 -142 4 5 14 83 20 174
18 246 1 441 -49 538 -11 21 -55 74 -99 117 l-80 80 -8 70 c-8 77 2 873 11
898 11 26 48 29 68 6 15 -19 17 -52 17 -358 0 -341 2 -361 36 -361 7 0 20 7
28 16 14 13 16 60 16 360 l0 345 23 8 c24 9 48 4 59 -13 4 -6 8 -160 8 -343 0
-182 3 -338 6 -347 8 -21 60 -21 68 0 3 9 6 165 6 347 0 183 4 337 8 343 12
18 42 24 63 14 18 -10 19 -25 19 -354 0 -370 0 -372 52 -364 l23 3 3 346 c2
327 3 347 21 363 22 20 56 14 65 -11 10 -25 20 -800 11 -888 l-7 -79 -85 -84
c-130 -129 -147 -188 -147 -492 1 -205 17 -379 36 -392 49 -30 400 -21 533 14
l90 23 7 65 c4 36 8 120 9 186 2 108 0 126 -20 168 -15 29 -31 48 -46 52 -30
8 -60 40 -80 88 -53 126 -31 774 35 1031 38 146 165 375 234 420 18 12 30 14
44 6 16 -8 20 -26 25 -111 3 -56 4 -174 2 -263 -19 -684 -27 -1304 -17 -1415
5 -68 12 -126 16 -129 7 -7 86 39 166 98 76 55 209 190 268 271 23 31 64 98
91 150 210 394 198 866 -33 1250 -266 443 -772 680 -1281 602z"/>
<path d="M955 2621 l-50 -6 -3 -358 -2 -358 47 3 c56 3 51 -14 52 182 l1 128
76 -4 c71 -3 78 -6 105 -35 15 -18 33 -52 39 -75 6 -24 20 -78 32 -120 l20
-78 50 0 c44 0 49 2 43 18 -4 9 -18 62 -32 117 -31 122 -54 170 -94 194 l-30
18 31 13 c98 41 138 181 76 272 -56 84 -168 112 -361 89z m233 -88 c41 -20 62
-59 62 -119 0 -82 -76 -134 -197 -134 l-53 0 0 134 0 135 28 4 c42 8 123 -3
160 -20z"/>
<path d="M5423 2556 l-43 -9 0 -63 0 -64 -40 0 c-39 0 -40 -1 -40 -34 0 -33 2
-35 38 -38 l37 -3 5 -187 c5 -169 7 -189 26 -215 28 -37 60 -53 109 -53 70 0
85 8 85 46 0 33 0 33 -52 36 -74 4 -78 15 -78 216 l0 162 65 0 65 0 0 35 0 35
-65 0 -64 0 -3 73 -3 72 -42 -9z"/>
<path d="M2483 2550 c-20 -8 -23 -16 -23 -70 l0 -60 -40 0 c-39 0 -40 -1 -40
-35 0 -34 1 -35 39 -35 l39 0 4 -182 c3 -152 6 -189 21 -216 21 -39 68 -62
126 -62 59 0 71 8 71 46 0 33 -1 34 -43 34 -72 0 -76 10 -77 195 0 88 -1 166
0 173 0 8 20 12 65 12 l65 0 0 35 0 34 -66 3 -67 3 1 68 c0 66 0 67 -26 66
-15 0 -37 -4 -49 -9z"/>
<path d="M1584 2406 c-113 -53 -170 -202 -129 -342 41 -142 194 -209 363 -159
49 15 52 17 46 43 -10 40 -10 40 -66 26 -91 -24 -156 -13 -212 37 -28 24 -56
86 -56 123 0 3 83 6 185 6 l185 0 0 43 c0 61 -26 140 -57 178 -59 69 -166 88
-259 45z m175 -72 c27 -22 51 -75 51 -111 0 -10 -34 -13 -135 -13 -129 0 -135
1 -135 20 0 31 25 74 60 104 44 36 116 37 159 0z"/>
<path d="M2083 2410 c-54 -24 -83 -70 -83 -132 0 -63 33 -100 131 -147 46 -23
79 -46 88 -62 43 -78 -62 -137 -166 -94 -48 20 -49 20 -62 -17 -13 -37 -8 -42
54 -59 53 -15 156 -6 196 17 53 31 74 68 74 129 0 74 -22 100 -131 155 -69 35
-90 51 -92 69 -12 78 54 111 150 77 37 -13 37 -13 47 17 14 39 16 36 -24 53
-48 20 -132 17 -182 -6z"/>
<path d="M2855 2412 c-51 -17 -66 -40 -46 -70 7 -11 16 -11 55 2 111 38 184 9
202 -82 l7 -32 -45 0 c-106 0 -223 -51 -254 -111 -21 -42 -20 -121 3 -160 48
-82 194 -93 270 -20 29 28 33 27 33 -9 0 -29 2 -30 43 -30 l42 0 -3 182 c-2
101 -8 200 -13 221 -28 109 -156 156 -294 109z m213 -303 c5 -89 -47 -149
-131 -149 -96 0 -121 132 -33 177 28 15 127 33 151 28 6 -1 11 -26 13 -56z"/>
<path d="M4070 2412 c-19 -9 -44 -31 -55 -49 -11 -18 -23 -32 -27 -33 -5 0 -8
20 -8 45 l0 45 -40 0 -40 0 0 -260 0 -260 50 0 50 0 0 165 c0 146 2 170 20
205 22 44 63 70 110 70 29 0 30 2 30 45 0 42 -2 45 -27 45 -16 0 -44 -8 -63
-18z"/>
<path d="M4305 2412 c-45 -15 -50 -20 -48 -46 1 -16 4 -30 7 -33 2 -2 25 3 50
11 26 9 67 16 91 16 57 0 103 -38 111 -91 l6 -36 -69 -6 c-108 -10 -176 -40
-218 -96 -15 -20 -20 -41 -20 -93 0 -57 4 -70 25 -93 41 -44 77 -58 142 -53
45 3 68 11 102 36 l45 31 3 -27 c3 -24 8 -27 44 -30 l40 -3 -3 183 c-2 101 -9
201 -14 224 -13 49 -49 91 -95 110 -45 19 -138 17 -199 -4z m215 -313 c0 -53
-3 -63 -33 -95 -56 -62 -150 -58 -177 7 -21 50 6 109 60 132 27 11 130 25 143
19 4 -2 7 -30 7 -63z"/>
<path d="M4953 2419 c-18 -5 -48 -24 -67 -42 l-35 -33 -3 35 c-3 35 -4 36 -47
39 l-44 3 6 -107 c4 -59 7 -176 7 -261 l0 -153 45 0 45 0 0 170 c0 193 8 227
62 260 40 24 105 26 137 4 43 -31 51 -70 51 -259 l0 -175 50 0 50 0 0 165 c0
195 -10 253 -53 302 -51 58 -121 76 -204 52z"/>
<path d="M3310 2238 c0 -101 5 -200 10 -220 14 -48 55 -97 97 -114 71 -30 177
-6 220 50 l21 26 7 -40 c7 -39 8 -40 46 -40 l39 0 0 260 0 260 -49 0 -50 0 -3
-190 -3 -190 -31 -31 c-37 -37 -109 -50 -150 -28 -50 26 -58 59 -62 257 l-4
182 -44 0 -44 0 0 -182z"/>
<path d="M2827 1633 c-4 -3 -7 -30 -7 -59 l0 -53 -26 14 c-18 9 -35 10 -57 4
-18 -5 -33 -9 -34 -9 -1 0 -9 -13 -18 -30 -28 -55 -11 -148 30 -164 29 -11 70
-7 93 10 20 14 22 14 22 0 0 -9 7 -16 15 -16 13 0 15 24 15 155 0 123 -3 155
-13 155 -8 0 -17 -3 -20 -7z m-9 -192 c4 -60 -9 -81 -46 -81 -40 0 -62 27 -62
75 0 46 15 71 45 78 39 8 60 -16 63 -72z"/>
<path d="M4140 1485 c0 -148 1 -155 20 -155 16 0 20 7 20 38 0 67 14 70 55 13
22 -31 44 -51 56 -51 26 0 25 6 -22 67 -44 59 -44 54 9 113 20 23 21 25 5 29
-11 2 -33 -14 -60 -44 l-43 -47 0 96 c0 89 -1 96 -20 96 -19 0 -20 -7 -20
-155z"/>
<path d="M3072 1620 c-33 -14 -49 -54 -34 -92 10 -27 9 -34 -13 -60 -30 -36
-32 -77 -4 -112 16 -21 29 -26 62 -26 23 0 54 6 69 14 23 12 29 12 39 0 6 -8
20 -14 31 -14 19 0 19 0 -1 25 -19 26 -19 26 -1 68 25 54 25 67 0 67 -14 0
-20 -7 -20 -23 0 -13 -6 -31 -13 -41 -13 -17 -16 -16 -45 19 l-31 38 30 28
c34 32 38 70 9 99 -21 21 -42 24 -78 10z m58 -35 c15 -18 4 -52 -22 -66 -16
-9 -23 -8 -29 2 -10 17 -12 63 -2 72 11 12 40 8 53 -8z m-15 -161 c42 -51 38
-64 -21 -64 -36 0 -56 20 -56 55 0 25 17 55 32 55 4 0 25 -21 45 -46z"/>
<path d="M3413 1622 l-43 -3 0 -145 0 -144 63 0 c117 0 172 50 172 156 0 57
-3 67 -30 94 -33 32 -90 47 -162 42z m129 -62 c28 -29 30 -35 26 -86 -6 -74
-36 -105 -107 -112 l-51 -5 0 117 0 116 51 0 c43 0 55 -5 81 -30z"/>
<path d="M2010 1475 c0 -138 1 -145 20 -145 18 0 20 7 20 65 l0 65 55 0 c41 0
55 4 55 14 0 11 -15 16 -52 18 l-53 3 -3 48 -3 47 60 0 c48 0 61 3 61 15 0 12
-16 15 -80 15 l-80 0 0 -145z"/>
<path d="M3800 1600 c0 -13 7 -20 20 -20 13 0 20 7 20 20 0 13 -7 20 -20 20
-13 0 -20 -7 -20 -20z"/>
<path d="M2250 1532 c-65 -32 -78 -125 -25 -178 38 -38 118 -30 152 15 39 53
17 142 -41 166 -44 19 -44 19 -86 -3z m77 -27 c40 -28 39 -111 -1 -137 -24
-17 -66 -8 -82 17 -21 33 -13 93 17 118 26 21 38 21 66 2z"/>
<path d="M2493 1535 c-47 -20 -67 -56 -60 -112 7 -61 41 -93 98 -93 61 0 99
42 99 108 0 38 -5 55 -25 76 -13 14 -31 26 -39 26 -8 0 -20 2 -28 5 -7 2 -27
-2 -45 -10z m60 -26 c31 -17 37 -28 37 -73 0 -48 -23 -76 -61 -76 -59 0 -83
100 -33 139 31 25 29 24 57 10z"/>
<path d="M3972 1534 c-19 -8 -34 -9 -37 -3 -4 5 -13 9 -21 9 -11 0 -14 -20
-14 -105 0 -98 1 -105 20 -105 18 0 20 7 20 74 0 81 13 106 54 106 37 0 46
-19 46 -102 0 -71 2 -78 20 -78 18 0 20 7 20 78 0 42 -6 88 -13 101 -16 32
-55 42 -95 25z"/>
<path d="M3660 1435 c0 -98 1 -105 20 -105 18 0 20 7 20 74 0 76 13 106 46
106 8 0 14 7 14 15 0 20 -29 19 -52 -2 -17 -15 -18 -15 -18 0 0 10 -7 17 -15
17 -12 0 -15 -18 -15 -105z"/>
<path d="M3800 1435 c0 -98 1 -105 20 -105 19 0 20 7 20 105 0 98 -1 105 -20
105 -19 0 -20 -7 -20 -105z"/>
<path d="M4356 1525 c-19 -19 -21 -60 -3 -75 6 -6 27 -20 45 -31 48 -28 40
-54 -18 -55 -55 -1 -64 -27 -11 -32 48 -5 79 5 92 29 18 34 3 67 -40 89 -22
11 -43 25 -47 31 -11 19 25 39 59 32 23 -5 29 -3 25 8 -7 21 -82 24 -102 4z"/>
</g>
</svg>
